Coordinates
version=1
nRows=9
nColumns=36
inDegrees=yes

Units are S.I. units (second, meters, Newtons, ...)
If the header above contains a line with 'inDegrees', this indicates whether rotational values are in degrees (yes) or radians (no).

endheader
time	pelvis_tilt	pelvis_list	pelvis_rotation	pelvis_tx	pelvis_ty	pelvis_tz	hip_flexion_r	hip_adduction_r	hip_rotation_r	knee_angle_r	knee_angle_r_beta	ankle_angle_r	subtalar_angle_r	mtp_angle_r	hip_flexion_l	hip_adduction_l	hip_rotation_l	knee_angle_l	knee_angle_l_beta	ankle_angle_l	subtalar_angle_l	mtp_angle_l	lumbar_extension	lumbar_bending	lumbar_rotation	arm_flex_r	arm_add_r	arm_rot_r	elbow_flex_r	pro_sup_r	arm_flex_l	arm_add_l	arm_rot_l	elbow_flex_l	pro_sup_l
      6.64000000	     -7.12427891	     -1.12524980	      2.29265782	     -0.20112733	      1.03875247	     -0.66019852	      8.10689128	     -5.53369561	     -9.60238351	      0.84998561	      0.01483505	     -0.29844374	     -0.36237932	     -7.49999987	     10.17802977	     -8.19158512	     -5.84456139	      2.95216285	      0.05152496	      0.14095184	     12.66560296	     -7.49999987	     -8.99305251	      2.40729183	      0.06518837	      7.25533031	    -11.51569747	     15.69845002	    125.57277970	    103.85781123	     12.50361715	    -14.82994176	     30.93714821	    122.84440334	    103.21146691
      6.65000000	     -7.10768969	     -1.08644237	      2.24044006	     -0.20075894	      1.03885190	     -0.66040642	      8.03870479	     -5.58201203	     -9.79459198	      0.78396253	      0.01368273	     -0.17125910	      0.08531068	     -7.49999987	     10.05198016	     -8.12259695	     -5.85173268	      2.82520881	      0.04930920	      0.01428759	     12.49938404	     -7.49999987	     -8.95056450	      2.36135888	      0.06245224	      7.24828754	    -11.50526424	     15.53365843	    125.33046574	    107.34472568	     12.42540665	    -14.78123402	     30.68243101	    122.53257902	    106.69898730
      6.66000000	     -7.09102971	     -1.06794266	      2.18576588	     -0.20044184	      1.03889528	     -0.66056561	      7.96510960	     -5.60340086	     -9.84507551	      0.70796843	      0.01235638	     -0.12072202	      0.22448532	     -7.49999987	      9.94932867	     -8.09519506	     -5.93752578	      2.73967129	      0.04781628	      0.03719223	     12.55447893	     -7.49999987	     -8.91206977	      2.33333261	      0.12822184	      7.23341212	    -11.48923353	     15.48927479	    125.37221996	    107.46027334	     12.41891136	    -14.73836872	     30.72276161	    122.58213261	    106.62399965
      6.67000000	     -7.04182918	     -1.04861768	      2.16468983	     -0.20018583	      1.03896813	     -0.66081899	      7.86791676	     -5.63676149	    -10.02757363	      0.65859318	      0.01149462	     -0.03806829	      0.53812800	     -7.49999987	      9.83756031	     -8.06217673	     -5.99668394	      2.67932258	      0.04676300	      0.05924955	     12.66308316	     -7.49999987	     -8.92772883	      2.31378700	      0.13462543	      7.30412001	    -11.47621730	     15.45345331	    125.44236519	    107.49705838	     12.43054826	    -14.68443070	     30.74960228	    122.64355531	    106.50349409
      6.68000000	     -6.96401281	     -1.04844165	      2.15728553	     -0.19991657	      1.03905818	     -0.66100189	      7.74463435	     -5.64629798	    -10.32112011	      0.62317419	      0.01087644	      0.13528159	      1.05502271	     -7.49999987	      9.70955633	     -8.05568370	     -6.02058773	      2.64263038	      0.04612260	      0.13581978	     12.70657989	     -7.49999987	     -8.97247393	      2.29994776	      0.16934524	      7.29210852	    -11.42030171	     15.40478197	    125.56727205	    106.84077735	     12.51682672	    -14.63963000	     30.84297678	    122.75337888	    105.87962215
      6.69000000	     -6.91781150	     -1.05406943	      2.17735221	     -0.19986240	      1.03910501	     -0.66127033	      7.67339676	     -5.65235348	    -10.44655603	      0.59047037	      0.01030565	     -0.02382576	      0.89125798	     -7.49999987	      9.62972943	     -8.02269292	     -5.71414845	      2.59614916	      0.04531135	      0.01790547	     12.25414861	     -7.49999987	     -9.00277036	      2.30481774	      0.06616493	      7.42982890	    -11.44152686	     15.62195057	    125.77129650	    104.37622363	     12.50421455	    -14.59762328	     30.96520685	    123.06745945	    103.59253814
      6.70000000	     -7.09261026	     -1.09922706	      2.21004716	     -0.19999732	      1.03878931	     -0.66144579	      7.85314510	     -5.62458244	    -10.37930451	      0.58477920	      0.01020632	     -0.04275399	      0.91147503	     -7.49999987	      9.93249242	     -8.05448571	     -5.49872658	      2.78202117	      0.04855543	      0.01821251	     12.08111758	     -7.49999987	     -8.83720282	      2.34022204	     -0.02420135	      7.49682494	    -11.48287009	     15.85148361	    126.18983116	    101.92879338	     12.51014475	    -14.60080211	     31.12858681	    123.57707542	    101.33499037
      6.71000000	     -6.83854909	     -1.06982899	      2.26764400	     -0.19974213	      1.03916607	     -0.66180257	      7.55555638	     -5.67918297	    -10.90276300	      0.58412336	      0.01019488	      0.15515696	      1.48651098	     -7.49999987	      9.66263613	     -8.00175803	     -5.52928109	      2.79745683	      0.04882483	      0.09966771	     12.04973325	     -7.49999987	     -9.05327198	      2.29934088	     -0.08193620	      7.56544594	    -11.44078184	     15.45435788	    125.69952989	    107.42985774	     12.64878646	    -14.50053863	     30.70979855	    122.82273976	    106.77083464
      6.72000000	     -6.80390234	     -1.11409567	      2.28188374	     -0.19981779	      1.03914725	     -0.66197047	      7.51872261	     -5.64168449	    -10.89871821	      0.57877639	      0.01010155	      0.12022899	      1.55711168	     -7.49999987	      9.71826475	     -8.05172944	     -5.41819552	      2.95411631	      0.05155906	      0.18032085	     12.02456168	     -7.49999987	     -9.09492928	      2.32751221	     -0.17025931	      7.72135589	    -11.45129256	     15.75051615	    126.00187668	    103.70197429	     12.69349434	    -14.49978069	     30.87467142	    123.29528411	    103.29203255
